<svg width="1075" height="585" viewBox="0 0 1075 585" fill="none" xmlns="http://www.w3.org/2000/svg">
<g clip-path="url(#clip0)">
<path d="M540.643 584.231C831.973 584.231 1068.14 568.596 1068.14 549.309C1068.14 530.023 831.973 514.388 540.643 514.388C249.312 514.388 13.1426 530.023 13.1426 549.309C13.1426 568.596 249.312 584.231 540.643 584.231Z" fill="#F2F2F2"/>
<path d="M520.426 167.01C434.482 167.01 372.775 222.149 372.775 350.808C372.775 496.621 434.482 535.218 520.426 535.218C606.37 535.218 671.753 492.945 671.753 350.808C671.753 198.868 606.37 167.01 520.426 167.01ZM520.991 486.818C461.464 486.818 430.365 451.895 430.365 350.902C430.365 261.79 462.738 214.797 522.264 214.797C581.791 214.797 614.163 245.665 614.163 350.902C614.163 449.349 580.518 486.818 520.991 486.818Z" fill="#2F2E41"/>
<path d="M321.312 433.516H285.777V328.877C285.777 323.319 283.57 317.989 279.64 314.059C275.71 310.129 270.379 307.921 264.822 307.921H256.495C253.743 307.921 251.018 308.463 248.476 309.516C245.933 310.57 243.623 312.113 241.677 314.059C239.731 316.005 238.188 318.315 237.134 320.858C236.081 323.4 235.539 326.125 235.539 328.877V433.516H135.309C133.247 433.516 131.22 432.984 129.425 431.969C127.63 430.955 126.127 429.494 125.063 427.728C123.998 425.962 123.409 423.951 123.351 421.89C123.293 419.829 123.768 417.788 124.732 415.964L230.814 215.184C232.137 212.681 232.938 209.936 233.17 207.114C233.403 204.292 233.061 201.453 232.166 198.767C231.27 196.081 229.84 193.605 227.961 191.487C226.082 189.369 223.794 187.654 221.234 186.445L214.971 183.488C210.109 181.192 204.549 180.853 199.444 182.541C194.338 184.229 190.077 187.816 187.542 192.558L58.1605 434.591C55.9573 438.712 54.8047 443.313 54.8047 447.987V447.987C54.8047 451.718 55.5397 455.413 56.9677 458.861C58.3957 462.309 60.4888 465.441 63.1275 468.08C65.7661 470.718 68.8987 472.812 72.3463 474.24C75.7938 475.668 79.4889 476.403 83.2205 476.403H235.539V542.57C235.539 545.868 236.189 549.135 237.451 552.182C238.714 555.23 240.564 557.999 242.896 560.332C245.229 562.664 247.998 564.514 251.046 565.777C254.093 567.039 257.36 567.689 260.658 567.689H260.658C263.957 567.689 267.223 567.039 270.271 565.777C273.319 564.514 276.088 562.664 278.42 560.332C280.753 557.999 282.603 555.23 283.865 552.182C285.128 549.135 285.777 545.868 285.777 542.57V476.403H321.312C326.999 476.403 332.453 474.143 336.474 470.122C340.496 466.101 342.755 460.647 342.755 454.96V454.96C342.755 449.272 340.496 443.818 336.474 439.797C332.453 435.776 326.999 433.516 321.312 433.516V433.516Z" fill="#FF642F"/>
<path d="M979.308 433.516H943.773V328.877C943.773 323.319 941.566 317.989 937.636 314.059C933.706 310.129 928.375 307.921 922.818 307.921H914.491C911.739 307.921 909.014 308.463 906.472 309.516C903.929 310.57 901.619 312.113 899.673 314.059C897.727 316.005 896.184 318.315 895.131 320.858C894.077 323.4 893.535 326.125 893.535 328.877V433.516H793.305C791.243 433.516 789.216 432.984 787.421 431.969C785.626 430.955 784.123 429.494 783.059 427.728C781.995 425.962 781.405 423.951 781.347 421.89C781.289 419.829 781.764 417.788 782.728 415.964L888.81 215.184C890.133 212.681 890.934 209.936 891.167 207.114C891.399 204.292 891.057 201.453 890.162 198.767C889.266 196.081 887.836 193.605 885.957 191.487C884.078 189.369 881.79 187.654 879.23 186.445L872.967 183.488C868.105 181.192 862.546 180.853 857.44 182.541C852.334 184.229 848.073 187.816 845.538 192.558L716.157 434.591C713.953 438.712 712.801 443.313 712.801 447.987V447.987C712.801 455.523 715.795 462.751 721.124 468.08C726.453 473.409 733.68 476.403 741.217 476.403H893.535V542.57C893.535 549.232 896.182 555.621 900.893 560.332C905.603 565.042 911.992 567.689 918.654 567.689V567.689C925.316 567.689 931.705 565.042 936.416 560.332C941.127 555.621 943.773 549.232 943.773 542.57V476.403H979.308C984.995 476.403 990.449 474.143 994.47 470.122C998.492 466.101 1000.75 460.647 1000.75 454.96V454.96C1000.75 449.272 998.492 443.818 994.47 439.797C990.449 435.776 984.995 433.516 979.308 433.516Z" fill="#FF642F"/>
<path d="M331.114 421.264H295.58V316.624C295.58 313.872 295.038 311.147 293.985 308.605C292.932 306.062 291.388 303.752 289.442 301.806C287.496 299.86 285.186 298.317 282.644 297.263C280.101 296.21 277.376 295.668 274.624 295.668H266.298C260.74 295.668 255.41 297.876 251.48 301.806C247.55 305.736 245.342 311.066 245.342 316.624V421.264H145.112C143.05 421.264 141.023 420.731 139.228 419.716C137.432 418.702 135.93 417.241 134.865 415.475C133.801 413.709 133.211 411.698 133.153 409.637C133.095 407.576 133.571 405.535 134.534 403.712L240.617 202.931C241.939 200.428 242.741 197.683 242.973 194.861C243.206 192.04 242.864 189.2 241.968 186.514C241.073 183.828 239.643 181.352 237.764 179.234C235.885 177.116 233.596 175.401 231.036 174.192L224.774 171.235C219.911 168.939 214.352 168.6 209.247 170.288C204.141 171.976 199.88 175.563 197.345 180.305L67.9633 422.338C65.7601 426.459 64.6074 431.06 64.6074 435.734V435.734C64.6074 443.27 67.6012 450.498 72.9302 455.827C78.2592 461.156 85.4869 464.15 93.0232 464.15H245.342V530.317C245.342 533.616 245.992 536.882 247.254 539.93C248.516 542.977 250.367 545.746 252.699 548.079C255.032 550.411 257.801 552.262 260.848 553.524C263.896 554.786 267.162 555.436 270.461 555.436H270.461C277.123 555.436 283.512 552.789 288.223 548.079C292.934 543.368 295.58 536.979 295.58 530.317V464.15H331.114C333.93 464.15 336.719 463.595 339.32 462.517C341.922 461.44 344.286 459.86 346.277 457.869C348.268 455.878 349.848 453.514 350.925 450.913C352.003 448.311 352.557 445.523 352.557 442.707V442.707C352.557 439.891 352.003 437.102 350.925 434.501C349.848 431.899 348.268 429.535 346.277 427.544C344.286 425.553 341.922 423.973 339.32 422.896C336.719 421.818 333.93 421.264 331.114 421.264V421.264Z" stroke="#3F3D56" stroke-miterlimit="10"/>
<path d="M997.687 421.264H962.152V316.624C962.152 311.066 959.945 305.736 956.015 301.806C952.085 297.876 946.754 295.668 941.197 295.668H932.87C930.118 295.668 927.393 296.21 924.851 297.263C922.308 298.317 919.998 299.86 918.052 301.806C916.106 303.752 914.563 306.062 913.509 308.605C912.456 311.147 911.914 313.872 911.914 316.624V421.264H811.684C809.622 421.264 807.595 420.731 805.8 419.716C804.005 418.702 802.502 417.241 801.438 415.475C800.373 413.709 799.784 411.698 799.726 409.637C799.668 407.576 800.143 405.535 801.107 403.712L907.189 202.931C908.512 200.428 909.313 197.683 909.546 194.861C909.778 192.04 909.436 189.2 908.541 186.514C907.645 183.828 906.215 181.352 904.336 179.234C902.457 177.116 900.169 175.401 897.609 174.192L891.346 171.235C886.484 168.939 880.925 168.6 875.819 170.288C870.713 171.976 866.452 175.563 863.917 180.305L734.536 422.338C732.332 426.459 731.18 431.06 731.18 435.734C731.18 443.27 734.174 450.498 739.503 455.827C744.832 461.156 752.059 464.15 759.596 464.15H911.914V530.317C911.914 536.979 914.561 543.368 919.271 548.079C923.982 552.789 930.371 555.436 937.033 555.436V555.436C943.695 555.436 950.084 552.789 954.795 548.079C959.506 543.368 962.152 536.979 962.152 530.317V464.15H997.687C1000.5 464.15 1003.29 463.595 1005.89 462.517C1008.49 461.44 1010.86 459.86 1012.85 457.869C1014.84 455.878 1016.42 453.514 1017.5 450.913C1018.58 448.311 1019.13 445.523 1019.13 442.707V442.707C1019.13 437.02 1016.87 431.565 1012.85 427.544C1008.83 423.523 1003.37 421.264 997.687 421.264V421.264Z" stroke="#3F3D56" stroke-miterlimit="10"/>
<path d="M540.03 155.981C454.086 155.981 392.379 211.121 392.379 339.779C392.379 485.592 454.086 524.19 540.03 524.19C625.974 524.19 691.357 481.916 691.357 339.779C691.357 187.84 625.974 155.981 540.03 155.981ZM540.595 475.79C481.068 475.79 449.969 440.867 449.969 339.874C449.969 250.762 482.341 203.769 541.868 203.769C601.395 203.769 633.767 234.637 633.767 339.874C633.767 438.321 600.122 475.79 540.595 475.79V475.79Z" stroke="#3F3D56" stroke-miterlimit="10"/>
<path d="M1006.86 419.549C1009.89 420.651 1013.14 421.033 1016.34 420.667C1019.54 420.301 1022.61 419.196 1025.32 417.439C1028.02 415.683 1030.28 413.322 1031.91 410.544C1033.55 407.766 1034.51 404.646 1034.74 401.431C1034.96 398.215 1034.43 394.992 1033.2 392.015C1031.96 389.038 1030.05 386.388 1027.62 384.275C1025.19 382.161 1022.29 380.642 1019.17 379.837C1016.05 379.031 1012.79 378.962 1009.63 379.634L1010.16 390.346L1005.09 381.166C1000.11 383.503 996.27 387.719 994.404 392.888C993.741 394.699 993.337 396.595 993.206 398.518C992.886 403.032 994.047 407.527 996.511 411.322C998.975 415.117 1002.61 418.005 1006.86 419.549V419.549Z" fill="#57B894"/>
<path d="M1031.94 543.793C1030.15 534.682 1037.9 526.606 1045.56 521.356C1053.22 516.106 1062.17 510.948 1064.78 502.039C1068.53 489.235 1057.35 477.509 1048.64 467.398C1042.18 459.893 1036.64 451.65 1032.12 442.84C1030.31 439.308 1028.64 435.615 1028.17 431.674C1027.48 425.998 1029.3 420.351 1031.14 414.937C1037.26 396.903 1043.8 379.019 1050.77 361.287" stroke="#3F3D56" stroke-miterlimit="10"/>
<path d="M1007.72 416.792C1010.75 417.893 1013.99 418.275 1017.2 417.909C1020.4 417.543 1023.47 416.438 1026.17 414.681C1028.88 412.925 1031.13 410.564 1032.77 407.786C1034.4 405.008 1035.37 401.889 1035.59 398.673C1035.82 395.458 1035.29 392.234 1034.06 389.257C1032.82 386.28 1030.91 383.63 1028.48 381.517C1026.04 379.403 1023.15 377.884 1020.03 377.079C1016.91 376.274 1013.64 376.204 1010.49 376.876L1011.01 387.588L1005.94 378.408C1000.97 380.745 997.128 384.962 995.261 390.131C994.598 391.941 994.195 393.837 994.064 395.761C993.744 400.274 994.904 404.769 997.368 408.564C999.833 412.359 1003.47 415.248 1007.72 416.792V416.792Z" stroke="#3F3D56" stroke-miterlimit="10"/>
<path d="M1029.4 357.588C1030.59 354.308 1032.58 351.38 1035.2 349.074C1037.82 346.767 1040.97 345.157 1044.38 344.391L1046.09 354.575L1049.27 343.879C1053.68 343.944 1057.95 345.41 1061.48 348.064C1065 350.718 1067.59 354.424 1068.87 358.645C1070.15 362.867 1070.06 367.386 1068.6 371.551C1067.15 375.716 1064.41 379.31 1060.78 381.815C1057.15 384.321 1052.81 385.607 1048.4 385.489C1043.99 385.371 1039.73 383.855 1036.24 381.159C1032.75 378.463 1030.2 374.727 1028.97 370.49C1027.74 366.253 1027.89 361.735 1029.4 357.588H1029.4Z" fill="#57B894"/>
<path d="M1030.54 353.911C1031.73 350.631 1033.73 347.702 1036.34 345.396C1038.96 343.09 1042.12 341.479 1045.52 340.713L1047.23 350.897L1050.41 340.201C1054.82 340.267 1059.1 341.732 1062.62 344.386C1066.15 347.04 1068.74 350.746 1070.02 354.967C1071.3 359.189 1071.2 363.708 1069.75 367.873C1068.29 372.038 1065.55 375.632 1061.92 378.138C1058.29 380.643 1053.96 381.93 1049.55 381.811C1045.14 381.693 1040.88 380.177 1037.39 377.481C1033.89 374.785 1031.35 371.049 1030.12 366.812C1028.89 362.576 1029.04 358.058 1030.54 353.911H1030.54Z" stroke="#3F3D56" stroke-miterlimit="10"/>
<path d="M1044.99 464.605C1049.8 466.347 1055.07 466.261 1059.82 464.363C1064.56 462.465 1068.44 458.887 1070.72 454.311C1073 449.736 1073.51 444.483 1072.16 439.553C1070.81 434.624 1067.7 430.363 1063.41 427.582L1060.97 435.801L1059.24 425.497C1059.22 425.489 1059.2 425.483 1059.19 425.477C1056.62 424.543 1053.89 424.125 1051.16 424.246C1048.42 424.367 1045.74 425.025 1043.27 426.182C1040.79 427.34 1038.57 428.974 1036.72 430.991C1034.88 433.008 1033.45 435.37 1032.51 437.94C1031.58 440.51 1031.16 443.239 1031.29 445.97C1031.41 448.701 1032.07 451.381 1033.23 453.858C1034.39 456.334 1036.02 458.558 1038.04 460.402C1040.06 462.246 1042.42 463.674 1044.99 464.605H1044.99Z" fill="#57B894"/>
<path d="M1045.98 460.88C1050.79 462.623 1056.06 462.537 1060.81 460.638C1065.55 458.74 1069.43 455.162 1071.71 450.587C1073.99 446.011 1074.5 440.758 1073.15 435.829C1071.8 430.899 1068.69 426.638 1064.4 423.857L1061.96 432.077L1060.23 421.773C1060.21 421.765 1060.19 421.758 1060.18 421.753C1057.61 420.819 1054.88 420.4 1052.15 420.521C1049.41 420.642 1046.73 421.3 1044.26 422.458C1041.78 423.615 1039.56 425.249 1037.71 427.266C1035.87 429.284 1034.44 431.645 1033.5 434.215C1032.57 436.785 1032.15 439.514 1032.28 442.245C1032.4 444.976 1033.06 447.657 1034.22 450.133C1035.38 452.609 1037.01 454.833 1039.03 456.677C1041.05 458.521 1043.41 459.949 1045.98 460.88H1045.98Z" stroke="#3F3D56" stroke-miterlimit="10"/>
<path d="M1023.32 502.167C1024.15 506.868 1026.57 511.141 1030.17 514.271C1033.77 517.4 1038.34 519.196 1043.11 519.357C1047.88 519.517 1052.56 518.033 1056.37 515.153C1060.17 512.273 1062.87 508.172 1064.01 503.538C1065.15 498.904 1064.66 494.019 1062.63 489.701C1060.59 485.384 1057.14 481.898 1052.84 479.827C1048.54 477.756 1043.66 477.226 1039.01 478.326C1034.37 479.426 1030.25 482.09 1027.33 485.87L1036.61 499.827L1023.94 492.419C1022.95 495.572 1022.74 498.916 1023.32 502.167V502.167Z" fill="#57B894"/>
<path d="M1024.18 499.409C1025.01 504.109 1027.42 508.382 1031.03 511.512C1034.63 514.641 1039.2 516.437 1043.97 516.598C1048.74 516.758 1053.42 515.274 1057.22 512.394C1061.03 509.514 1063.73 505.413 1064.87 500.779C1066.01 496.145 1065.52 491.26 1063.49 486.943C1061.45 482.626 1058 479.139 1053.7 477.068C1049.4 474.997 1044.52 474.467 1039.87 475.567C1035.23 476.668 1031.1 479.331 1028.19 483.111L1037.46 497.068L1024.79 489.66C1023.81 492.814 1023.6 496.157 1024.18 499.409V499.409Z" stroke="#3F3D56" stroke-miterlimit="10"/>
<path d="M9.00672 470.249C10.997 470.973 13.1282 471.224 15.2322 470.984C17.3362 470.743 19.3556 470.017 21.1312 468.863C22.9068 467.709 24.39 466.158 25.464 464.333C26.538 462.507 27.1734 460.458 27.3201 458.345C27.4668 456.232 27.1208 454.115 26.3094 452.158C25.498 450.202 24.2433 448.461 22.6442 447.073C21.0452 445.684 19.1455 444.686 17.0949 444.157C15.0444 443.628 12.8989 443.583 10.8277 444.024L11.17 451.062L7.84012 445.031C4.57204 446.566 2.04732 449.336 0.820762 452.733C0.38516 453.922 0.120346 455.168 0.0342206 456.431C-0.175962 459.397 0.586246 462.35 2.20534 464.844C3.82443 467.337 6.21217 469.235 9.00672 470.249V470.249Z" fill="#57B894"/>
<path d="M25.4842 551.879C24.3088 545.894 29.4022 540.587 34.4334 537.138C39.4645 533.689 45.3432 530.3 47.0598 524.446C49.5269 516.034 42.1781 508.33 36.4584 501.686C32.2149 496.756 28.5707 491.34 25.6021 485.552C24.3115 483.278 23.4324 480.794 23.0054 478.215C22.5544 474.486 23.7524 470.776 24.9593 467.219C28.9799 455.37 33.2787 443.62 37.8555 431.97" stroke="#3F3D56" stroke-miterlimit="10"/>
<path d="M9.57119 468.437C11.5615 469.16 13.6926 469.412 15.7967 469.171C17.9007 468.93 19.9201 468.204 21.6956 467.05C23.4712 465.896 24.9545 464.345 26.0285 462.52C27.1025 460.695 27.7378 458.645 27.8845 456.533C28.0312 454.42 27.6852 452.302 26.8738 450.346C26.0624 448.39 24.8077 446.649 23.2087 445.26C21.6097 443.872 19.71 442.874 17.6594 442.345C15.6088 441.816 13.4634 441.77 11.3922 442.212L11.7345 449.25L8.40458 443.218C5.1365 444.754 2.61177 447.524 1.38522 450.92C0.949618 452.11 0.684808 453.355 0.598678 454.619C0.388481 457.584 1.15068 460.538 2.76978 463.031C4.38888 465.525 6.77662 467.422 9.57119 468.437V468.437Z" stroke="#3F3D56" stroke-miterlimit="10"/>
<path d="M23.8121 429.539C24.5932 427.384 25.9041 425.46 27.6241 423.944C29.3441 422.429 31.4179 421.371 33.6542 420.868L34.7801 427.559L36.8675 420.531C39.7656 420.574 42.5752 421.537 44.8905 423.281C47.2057 425.025 48.9069 427.459 49.7484 430.233C50.5898 433.007 50.5281 435.976 49.572 438.712C48.6159 441.448 46.815 443.81 44.4292 445.456C42.0435 447.102 39.1963 447.947 36.2989 447.87C33.4014 447.792 30.6035 446.796 28.3092 445.025C26.015 443.253 24.343 440.799 23.5346 438.015C22.7263 435.232 22.8235 432.263 23.8121 429.539V429.539Z" fill="#57B894"/>
<path d="M24.5641 436.123C25.3452 433.967 26.6561 432.044 28.3761 430.528C30.0961 429.013 32.1698 427.955 34.4062 427.452L35.5321 434.142L37.6194 427.115C40.5176 427.158 43.3271 428.121 45.6424 429.865C47.9577 431.609 49.6588 434.043 50.5003 436.817C51.3418 439.591 51.28 442.56 50.324 445.296C49.3679 448.032 47.5669 450.394 45.1812 452.04C42.7954 453.686 39.9483 454.531 37.0508 454.454C34.1533 454.376 31.3555 453.38 29.0612 451.609C26.7669 449.837 25.0949 447.383 24.2866 444.599C23.4782 441.816 23.5754 438.847 24.5641 436.123V436.123Z" stroke="#3F3D56" stroke-miterlimit="10"/>
<path d="M34.0576 501.822C37.214 502.967 40.6813 502.91 43.7987 501.663C46.9162 500.416 49.4656 498.065 50.9612 495.059C52.4568 492.052 52.7939 488.601 51.9083 485.362C51.0227 482.124 48.9763 479.324 46.1592 477.497L44.5553 482.897L43.418 476.127C43.4067 476.122 43.3951 476.118 43.3832 476.114C41.6948 475.5 39.9021 475.225 38.1073 475.304C36.3126 475.384 34.551 475.816 32.9234 476.576C31.2957 477.336 29.8338 478.41 28.6213 479.736C27.4088 481.061 26.4693 482.613 25.8567 484.302C25.2441 485.99 24.9703 487.783 25.0509 489.578C25.1315 491.373 25.565 493.134 26.3266 494.761C27.0882 496.388 28.163 497.849 29.4895 499.061C30.816 500.272 32.3683 501.21 34.0576 501.822V501.822Z" fill="#57B894"/>
<path d="M34.7078 499.375C37.8642 500.52 41.3315 500.463 44.4489 499.216C47.5663 497.969 50.1158 495.618 51.6114 492.612C53.107 489.606 53.4441 486.154 52.5585 482.915C51.6729 479.677 49.6265 476.877 46.8094 475.05L45.2055 480.45L44.0682 473.68C44.0569 473.675 44.0453 473.671 44.0334 473.667C42.3454 473.055 40.5533 472.781 38.7595 472.861C36.9657 472.942 35.2053 473.374 33.5787 474.135C30.2938 475.671 27.7535 478.449 26.5169 481.858C25.2802 485.267 25.4484 489.028 26.9845 492.313C28.5206 495.598 31.2988 498.138 34.7078 499.375V499.375Z" stroke="#3F3D56" stroke-miterlimit="10"/>
<path d="M19.8214 524.53C20.3641 527.618 21.9521 530.425 24.3192 532.481C26.6862 534.538 29.6883 535.717 32.822 535.823C35.9556 535.929 39.0303 534.953 41.5303 533.061C44.0303 531.169 45.8036 528.474 46.5529 525.43C47.3021 522.385 46.9817 519.175 45.6453 516.339C44.309 513.503 42.038 511.212 39.2132 509.851C36.3885 508.491 33.1817 508.142 30.1308 508.865C27.0798 509.588 24.3702 511.338 22.4564 513.822L28.5487 522.992L20.2243 518.125C19.5789 520.196 19.4407 522.393 19.8214 524.53V524.53Z" fill="#57B894"/>
<path d="M20.3858 522.718C20.9286 525.806 22.5166 528.614 24.8836 530.67C27.2507 532.726 30.2528 533.906 33.3864 534.012C36.5201 534.117 39.5947 533.142 42.0948 531.25C44.5948 529.357 46.3681 526.663 47.1173 523.618C47.8665 520.574 47.5461 517.364 46.2098 514.528C44.8734 511.691 42.6025 509.4 39.7777 508.04C36.9529 506.679 33.7462 506.331 30.6952 507.054C27.6443 507.777 24.9347 509.527 23.0208 512.01L29.1132 521.18L20.7888 516.313C20.1433 518.385 20.0051 520.582 20.3858 522.718V522.718Z" stroke="#3F3D56" stroke-miterlimit="10"/>
<path d="M480.945 341.115C490.334 341.115 497.945 331.265 497.945 319.115C497.945 306.965 490.334 297.115 480.945 297.115C471.556 297.115 463.945 306.965 463.945 319.115C463.945 331.265 471.556 341.115 480.945 341.115Z" fill="#2F2E41"/>
<path d="M573.445 341.615C582.834 341.615 590.445 331.765 590.445 319.615C590.445 307.465 582.834 297.615 573.445 297.615C564.056 297.615 556.445 307.465 556.445 319.615C556.445 331.765 564.056 341.615 573.445 341.615Z" fill="#2F2E41"/>
<path d="M560.445 384.615C560.445 394.555 546.565 402.615 529.445 402.615C512.325 402.615 498.445 394.555 498.445 384.615C498.445 376.005 508.855 368.805 522.765 367.045C524.98 366.753 527.212 366.61 529.445 366.615C533.188 366.603 536.921 367.006 540.575 367.816C552.195 370.406 560.445 376.955 560.445 384.615Z" fill="#2F2E41"/>
<path d="M484.945 336.115C494.334 336.115 501.945 326.265 501.945 314.115C501.945 301.965 494.334 292.115 484.945 292.115C475.556 292.115 467.945 301.965 467.945 314.115C467.945 326.265 475.556 336.115 484.945 336.115Z" stroke="#3F3D56" stroke-miterlimit="10"/>
<path d="M577.445 336.615C586.834 336.615 594.445 326.765 594.445 314.615C594.445 302.465 586.834 292.615 577.445 292.615C568.056 292.615 560.445 302.465 560.445 314.615C560.445 326.765 568.056 336.615 577.445 336.615Z" stroke="#3F3D56" stroke-miterlimit="10"/>
<path d="M533.445 397.615C550.566 397.615 564.445 389.556 564.445 379.615C564.445 369.674 550.566 361.615 533.445 361.615C516.324 361.615 502.445 369.674 502.445 379.615C502.445 389.556 516.324 397.615 533.445 397.615Z" stroke="#3F3D56" stroke-miterlimit="10"/>
<path d="M540.945 369.316C540.954 370.573 540.481 371.786 539.625 372.707C539.221 373.149 538.73 373.502 538.183 373.744C537.635 373.986 537.044 374.113 536.445 374.115H526.445C525.213 374.073 524.048 373.544 523.205 372.644C522.362 371.745 521.909 370.548 521.945 369.316C521.94 368.341 522.226 367.386 522.765 366.574C524.978 366.263 527.211 366.109 529.445 366.115C533.193 366.103 536.929 366.533 540.575 367.396C540.822 368.005 540.948 368.658 540.945 369.316V369.316Z" fill="white"/>
<path d="M484.945 313.115C487.707 313.115 489.945 310.877 489.945 308.115C489.945 305.354 487.707 303.115 484.945 303.115C482.184 303.115 479.945 305.354 479.945 308.115C479.945 310.877 482.184 313.115 484.945 313.115Z" fill="white"/>
<path d="M577.945 313.115C580.707 313.115 582.945 310.877 582.945 308.115C582.945 305.354 580.707 303.115 577.945 303.115C575.184 303.115 572.945 305.354 572.945 308.115C572.945 310.877 575.184 313.115 577.945 313.115Z" fill="white"/>
<path opacity="0.3" d="M582.945 360.115C585.707 360.115 587.945 357.877 587.945 355.115C587.945 352.354 585.707 350.115 582.945 350.115C580.184 350.115 577.945 352.354 577.945 355.115C577.945 357.877 580.184 360.115 582.945 360.115Z" fill="#FF642F"/>
<path opacity="0.3" d="M460.945 360.115C463.707 360.115 465.945 357.877 465.945 355.115C465.945 352.354 463.707 350.115 460.945 350.115C458.184 350.115 455.945 352.354 455.945 355.115C455.945 357.877 458.184 360.115 460.945 360.115Z" fill="#FF642F"/>
</g>
<defs>
<clipPath id="clip0">
<rect width="1074.39" height="584.231" fill="white"/>
</clipPath>
</defs>
</svg>
