<svg width="44" height="41" viewBox="0 0 44 41" fill="none" xmlns="http://www.w3.org/2000/svg">
<path d="M19.62 18.54C17.22 18.98 15.3 19.2 13.86 19.2C12.42 19.2 11.08 18.86 9.84 18.18C8.64 17.46 8.08 16.38 8.16 14.94C7 14.5 6 13.86 5.16 13.02C4.32 12.14 3.82 11.3 3.66 10.5C3.5 9.66 3.42 8.82 3.42 7.98C3.42 7.14 3.72 6.1 4.32 4.86C4.92 3.62 5.88 2.64 7.2 1.92C8.68 1.08 10.2 0.659997 11.76 0.659997C13.36 0.659997 14.84 1.14 16.2 2.1C17.6 3.02 18.72 4.3 19.56 5.94C22.56 5.22 25.8 4.86 29.28 4.86C30.32 3.78 31.42 3.12 32.58 2.88C32.86 2.84 33 2.92 33 3.12C32.92 3.4 32.64 3.6 32.16 3.72C31.72 3.84 31.18 4.24 30.54 4.92C34.38 5.08 37.54 5.78 40.02 7.02C42.54 8.26 43.8 9.92 43.8 12C43.8 14.6 41.98 16.98 38.34 19.14C34.7 21.26 30.32 22.58 25.2 23.1C25.56 23.62 26.42 24.92 27.78 27C29.18 29.08 30.2 30.6 30.84 31.56C31.52 32.48 32.46 33.6 33.66 34.92C36.38 37.96 38.72 39.48 40.68 39.48C42.2 39.48 42.96 38.52 42.96 36.6C42.96 34.68 42.38 32.94 41.22 31.38C41.06 31.14 41.06 31.02 41.22 31.02C41.38 31.02 41.54 31.12 41.7 31.32C42.98 32.8 43.62 34.32 43.62 35.88C43.62 37.44 43.22 38.64 42.42 39.48C41.66 40.36 40.64 40.8 39.36 40.8C37.48 40.8 35.54 39.92 33.54 38.16C31.66 36.52 29.92 34.2 28.32 31.2C27.72 30.16 26.98 28.76 26.1 27C25.22 25.24 24.56 23.98 24.12 23.22H24L23.46 24.84C19.86 34.68 14.3 39.6 6.78 39.6C3.62 39.6 1.6 38.46 0.72 36.18C0.44 35.46 0.3 34.72 0.3 33.96C0.3 32.36 0.94 30.68 2.22 28.92C4.66 25.52 8.46 23.38 13.62 22.5L15.24 22.26C15.48 22.22 15.6 22.32 15.6 22.56C15.56 22.8 15.42 22.96 15.18 23.04C10.42 23.8 6.68 25.78 3.96 28.98C2.32 30.94 1.5 32.76 1.5 34.44C1.5 34.88 1.54 35.3 1.62 35.7C2.14 37.74 3.84 38.76 6.72 38.76C10.44 38.76 13.52 37.06 15.96 33.66C17.84 30.98 19.46 27.78 20.82 24.06L23.16 17.52L20.64 18.3C19.76 23.18 17.86 27.78 14.94 32.1C13.74 33.86 12.3 35.22 10.62 36.18C8.98 37.14 7.26 37.62 5.46 37.62C5.34 37.62 5.18 37.6 4.98 37.56C4.78 37.56 4.7 37.48 4.74 37.32C4.82 37.16 4.92 37.08 5.04 37.08C5.2 37.12 5.34 37.14 5.46 37.14C7.18 37.14 8.8 36.68 10.32 35.76C11.88 34.84 13.2 33.52 14.28 31.8C16.8 28 18.58 23.58 19.62 18.54ZM41.58 12.18C41.58 10.3 40.5 8.76 38.34 7.56C36.18 6.32 33.44 5.64 30.12 5.52C29.08 7 27.88 10.16 26.52 15C28.84 13.96 30.9 12.8 32.7 11.52C33.18 11.16 33.42 11.14 33.42 11.46C33.42 11.78 33.22 12.06 32.82 12.3C30.38 13.98 28.16 15.28 26.16 16.2C25.68 17.88 25.1 19.82 24.42 22.02L24.66 22.38C26.38 22.18 27.26 22.08 27.3 22.08C31.82 21.12 35.28 19.72 37.68 17.88C40.28 15.92 41.58 14.02 41.58 12.18ZM11.64 1.2C8.52 1.2 6.3 2.6 4.98 5.4C4.54 6.36 4.32 7.22 4.32 7.98C4.32 8.74 4.38 9.4 4.5 9.96C4.86 11.92 6.1 13.38 8.22 14.34C8.5 12.74 9.56 11.18 11.4 9.66C13.28 8.14 15.82 6.94 19.02 6.06C18.26 4.54 17.22 3.36 15.9 2.52C14.58 1.64 13.16 1.2 11.64 1.2ZM19.92 17.1C20.16 15.54 20.28 13.9 20.28 12.18C20.28 10.42 20 8.72 19.44 7.08C16.76 8 14.5 9.2 12.66 10.68C10.82 12.12 9.72 13.48 9.36 14.76C9.96 14.92 10.54 15 11.1 15C12.74 15 14.16 14.4 15.36 13.2C15.56 13 15.68 13.04 15.72 13.32L15.66 13.56C14.38 14.84 12.88 15.48 11.16 15.48C10.56 15.48 9.92 15.4 9.24 15.24C9.12 16.24 9.6 16.98 10.68 17.46C11.36 17.78 12.16 17.94 13.08 17.94C15.4 17.94 17.68 17.66 19.92 17.1ZM19.98 6.9C20.74 8.7 21.12 10.5 21.12 12.3C21.12 14.06 21.02 15.6 20.82 16.92C21.62 16.72 22.56 16.44 23.64 16.08C25.44 11 27.14 7.46 28.74 5.46C25.66 5.5 22.74 5.98 19.98 6.9Z" fill="#FF642F"/>
</svg>
